<?xml version="1.0" encoding="UTF-8"?>
<!-- Generator: Adobe Illustrator 18.1.0, SVG Export Plug-In . SVG Version: 6.00 Build 0)  -->
<svg version="1.1" id="Layer_1" xmlns="http://www.w3.org/2000/svg" xmlns:xlink="http://www.w3.org/1999/xlink" x="0px" y="0px"
	 viewBox="0 0 600 600" enable-background="new 0 0 600 600" xml:space="preserve">
<g>
	<path fill="#FED13A" d="M294.3,512.5c-32.9,0-63.4-5.8-91.5-17.4s-52.3-27.3-72.6-47.3c-20.3-19.9-36.3-43.3-47.9-70.1
		c-11.6-26.8-17.4-55.5-17.4-86v-1.2c0-30.5,5.8-59.3,17.4-86.3c11.6-27,27.8-50.6,48.5-70.8c20.7-20.1,45.1-36,73.2-47.6
		c28.1-11.6,58.6-17.4,91.5-17.4c32.9,0,63.4,5.8,91.5,17.4c28.1,11.6,52.3,27.4,72.6,47.3c20.3,19.9,36.3,43.3,47.9,70.1
		c11.6,26.8,17.4,55.5,17.4,86v1.2c0,30.5-5.8,59.3-17.4,86.3c-11.6,27-27.8,50.6-48.5,70.8s-45.1,36-73.2,47.6
		S327.2,512.5,294.3,512.5z M295.2,405.8c16.3,0,31.2-3,44.7-9.2c13.5-6.1,24.9-14.3,34.3-24.7c9.4-10.4,16.7-22.5,22-36.3
		c5.3-13.8,8-28.5,8-43.9v-1.2c0-15.5-2.7-30.1-8-43.9c-5.3-13.8-12.8-26-22.6-36.6c-9.8-10.6-21.4-19-34.9-25.3
		c-13.5-6.3-28.3-9.5-44.7-9.5c-16.3,0-31.1,3-44.3,9.1c-13.3,6.1-24.7,14.3-34.3,24.7c-9.6,10.4-16.9,22.5-22,36.3
		c-5.1,13.8-7.6,28.5-7.6,43.9v1.2c0,15.5,2.6,30.1,7.9,43.9c5.3,13.8,12.7,26,22.3,36.6c9.6,10.6,21.1,19,34.6,25.3
		C264,402.6,278.9,405.8,295.2,405.8z"/>
</g>
</svg>
